<svg width="116" height="44" viewBox="0 0 116 44" fill="none" xmlns="http://www.w3.org/2000/svg">
<path d="M15.5581 0.869859C15.0766 1.2788 14.7011 1.8053 14.4657 2.4018C14.2303 2.99831 14.1424 3.64603 14.2099 4.28647C14.2773 4.9269 14.498 5.53989 14.8521 6.07005C15.2062 6.60022 15.6824 7.03088 16.2378 7.32312C16.3724 7.42815 16.4668 7.57879 16.5046 7.74861C16.5424 7.91844 16.5212 8.0966 16.4446 8.25184C16.368 8.40708 16.2409 8.52948 16.0858 8.59757C15.9306 8.66565 15.7571 8.67508 15.5959 8.62418C14.4192 8.00647 13.5177 6.94419 13.0785 5.65776C10.3428 6.35913 7.83108 7.78507 5.79073 9.79513C-0.250971 15.3246 -1.7614 23.8466 2.19088 29.2069C1.1865 30.4224 0.509302 31.8897 0.22733 33.4614C0.10734 34.2008 0.158877 34.959 0.377698 35.6738C0.59652 36.3885 0.976374 37.0394 1.48602 37.5728C3.5125 39.7585 6.2061 39.1861 8.37104 38.7437C9.81853 38.4315 11.1905 38.1452 12.0086 38.7437C12.8268 39.3422 12.7764 39.6154 12.8016 39.7585C13.2673 41.8793 11.5429 42.9201 11.115 43.4536C11.0775 43.5031 11.0542 43.5624 11.0476 43.6249C11.0409 43.6873 11.0513 43.7505 11.0774 43.8072C11.1036 43.864 11.1445 43.9121 11.1956 43.9461C11.2467 43.9802 11.3059 43.9988 11.3667 44C12.339 43.9832 13.2797 43.6408 14.0477 43.0242C14.5581 42.5752 14.9437 41.9939 15.1649 41.34C15.3861 40.6861 15.4349 39.9831 15.3064 39.3032L15.2309 38.9519C14.9432 37.8816 14.2608 36.9706 13.3303 36.4148C11.631 35.2959 9.5542 35.7253 7.77945 36.1026C5.6271 36.5449 4.25513 36.7531 3.29853 35.7122C3.08584 35.4737 2.92965 35.1874 2.84228 34.8758C2.75491 34.5642 2.73874 34.2359 2.79505 33.9168C3.00156 32.9245 3.43294 31.997 4.05374 31.2106C8.83675 35.1138 16.6406 34.2811 22.2669 29.0768C24.2742 27.3291 25.8564 25.1187 26.8863 22.6236C26.1978 22.3577 25.574 21.9392 25.0586 21.3975C24.5433 20.8558 24.1489 20.2041 23.9032 19.488C23.8718 19.3975 23.858 19.3014 23.8625 19.2053C23.867 19.1092 23.8898 19.015 23.9295 18.928C23.9693 18.841 24.0252 18.763 24.0941 18.6984C24.163 18.6337 24.2436 18.5837 24.3312 18.5513C24.4188 18.5188 24.5117 18.5045 24.6047 18.5092C24.6976 18.5138 24.7888 18.5374 24.873 18.5784C24.9571 18.6195 25.0326 18.6773 25.0951 18.7486C25.1577 18.8198 25.206 18.9031 25.2374 18.9936C25.3979 19.4425 25.6368 19.8571 25.9423 20.2166C26.361 20.7047 26.8932 21.0744 27.4885 21.2908C28.0839 21.5072 28.7228 21.5632 29.3449 21.4535C29.967 21.3438 30.5518 21.0721 31.044 20.6638C31.5363 20.2556 31.9197 19.7245 32.1582 19.1205C32.3967 18.5165 32.4823 17.8597 32.407 17.212C32.3317 16.5644 32.0979 15.9472 31.7278 15.4189C31.3576 14.8905 30.8633 14.4684 30.2915 14.1924C29.7197 13.9164 29.0892 13.7956 28.4597 13.8414C28.2775 13.8491 28.0993 13.7847 27.9614 13.6615C27.8235 13.5382 27.7361 13.3653 27.7171 13.1779C27.7066 13.0821 27.7146 12.9851 27.7407 12.8926C27.7667 12.8001 27.8103 12.7138 27.8688 12.6387C27.9273 12.5637 27.9997 12.5014 28.0817 12.4555C28.1636 12.4096 28.2536 12.3809 28.3464 12.3712C29.3316 12.2914 30.3183 12.5036 31.191 12.9827C31.7574 9.78212 31.9211 5.8269 30.7379 4.44777C29.8317 3.39392 26.194 2.61328 22.9844 2.67834C23.1356 3.41609 23.1356 4.1784 22.9844 4.91616C22.9451 5.10369 22.8358 5.26764 22.6803 5.37238C22.5247 5.47713 22.3355 5.51423 22.1537 5.47561C22.0621 5.46001 21.9744 5.42552 21.896 5.3742C21.8175 5.32288 21.7499 5.25577 21.697 5.17687C21.6442 5.09797 21.6072 5.00889 21.5884 4.91493C21.5695 4.82096 21.5691 4.72404 21.5873 4.62993C21.7397 3.84892 21.6549 3.03829 21.3446 2.30899C21.0342 1.57969 20.5134 0.967338 19.8534 0.555741C19.1934 0.144144 18.4265 -0.0465883 17.6576 0.00964066C16.8888 0.0658696 16.1555 0.366312 15.5581 0.869859ZM29.4918 5.65776C29.6138 5.87672 29.6673 6.12938 29.6447 6.38099C29.6222 6.63261 29.5248 6.87083 29.3659 7.06291C29.0764 7.32312 28.7618 6.94581 28.4597 6.59452C28.1576 6.24324 27.78 5.81389 28.0569 5.55368C28.2777 5.41743 28.5336 5.35437 28.7902 5.37298C29.0467 5.39158 29.2916 5.49097 29.4918 5.65776Z" fill="white"/>
<path fill-rule="evenodd" clip-rule="evenodd" d="M88.6361 28.504C88.6403 29.4352 88.456 30.357 88.0949 31.2102C87.7559 32.0376 87.2642 32.7888 86.6474 33.422C86.0268 34.0555 85.2967 34.563 84.4951 34.9182C83.6666 35.2799 82.7763 35.4657 81.877 35.4647H80.1778V31.9518H81.8518C82.3088 31.9602 82.764 31.8898 83.1986 31.7436C83.8746 31.499 84.4306 30.9897 84.7468 30.3255C84.8998 30.0091 85.0221 29.6779 85.1118 29.3367C84.9714 29.5626 84.7761 29.7466 84.5454 29.8701C84.2881 30.0223 84.0132 30.1403 83.7273 30.2214C83.4189 30.3131 83.1028 30.374 82.7832 30.4035C82.4814 30.423 82.1788 30.423 81.877 30.4035C80.984 30.4483 80.091 30.3158 79.2463 30.0132C78.4311 29.6892 77.69 29.1934 77.0703 28.5573C76.4505 27.9211 75.9656 27.1586 75.6465 26.3182C75.2836 25.3567 75.1041 24.3317 75.1178 23.2997C75.1092 22.3147 75.2888 21.3375 75.6465 20.4244C75.9841 19.5662 76.48 18.784 77.1066 18.1215C77.7163 17.4772 78.4436 16.9642 79.2463 16.6123C80.0762 16.2391 80.972 16.0486 81.877 16.0528C82.3015 16.058 82.724 16.1148 83.1357 16.222C83.9823 16.4491 84.7805 16.8374 85.4894 17.3669C85.8446 17.6277 86.1812 17.9147 86.4964 18.2256L87.7551 16.6123H88.5732L88.6361 28.504ZM96.4652 26.8907C96.5923 26.9304 96.7231 26.9565 96.8554 26.9687H97.2455C97.5687 26.9712 97.8906 26.9274 98.2022 26.8386C98.5016 26.739 98.7889 26.6036 99.0581 26.4353C99.6084 26.0782 100.046 25.5627 100.317 24.9521L102.834 27.5542C102.525 28.0308 102.161 28.4676 101.752 28.8553C100.939 29.5789 99.9731 30.0957 98.9322 30.3645C98.4043 30.4942 97.8636 30.5597 97.3211 30.5597C96.4352 30.5671 95.5568 30.3914 94.7376 30.0428C93.9183 29.6942 93.1748 29.1799 92.5506 28.53C91.9243 27.8799 91.4319 27.1054 91.1032 26.2532C90.7427 25.3314 90.5589 24.346 90.5619 23.3518C90.5539 22.336 90.7377 21.3284 91.1032 20.3854C91.4244 19.5401 91.9095 18.7717 92.5285 18.1274C93.1476 17.483 93.8876 16.9763 94.703 16.6383C96.0469 16.0636 97.5336 15.9496 98.9448 16.3131C99.4636 16.4499 99.966 16.6463 100.443 16.8985C100.895 17.1604 101.317 17.4747 101.701 17.8353C102.115 18.223 102.482 18.6597 102.796 19.1364L96.4652 26.8907ZM109.644 26.8907C109.771 26.9304 109.902 26.9565 110.034 26.9687H110.437C110.76 26.9712 111.082 26.9274 111.393 26.8386C111.693 26.739 111.98 26.6036 112.249 26.4353C112.516 26.2587 112.758 26.0441 112.967 25.7978C113.176 25.5423 113.35 25.2576 113.483 24.9521L116 27.5542C115.69 28.0308 115.327 28.4676 114.918 28.8553C114.517 29.2199 114.073 29.5303 113.596 29.779C113.122 30.0368 112.619 30.2334 112.098 30.3645C111.57 30.4942 111.03 30.5597 110.487 30.5597C109.601 30.5671 108.723 30.3914 107.903 30.0428C107.084 29.6942 106.341 29.1799 105.717 28.53C105.09 27.8799 104.598 27.1054 104.269 26.2532C103.902 25.3332 103.718 24.3466 103.728 23.3518C103.72 22.336 103.904 21.3284 104.269 20.3854C104.59 19.5401 105.075 18.7717 105.694 18.1274C106.313 17.483 107.053 16.9763 107.869 16.6383C108.7 16.287 109.589 16.1058 110.487 16.1049C111.034 16.1091 111.579 16.179 112.111 16.3131C112.629 16.4499 113.132 16.6463 113.608 16.8985C114.061 17.1604 114.483 17.4747 114.867 17.8353C115.28 18.223 115.648 18.6597 115.962 19.1364L109.644 26.8907ZM67.9937 23.2737C67.9945 24.2454 67.8151 25.2082 67.465 26.11C67.1241 26.9595 66.6332 27.736 66.0175 28.3999C65.4004 29.0444 64.6699 29.5611 63.8652 29.9221C63.0452 30.2762 62.1654 30.4584 61.2767 30.4581C60.3881 30.4578 59.5084 30.275 58.6887 29.9203C57.8689 29.5657 57.1256 29.0462 56.5017 28.3921C55.8778 27.738 55.3858 26.9623 55.0544 26.11C54.6941 25.2064 54.5101 24.2381 54.5131 23.2607C54.5104 22.275 54.6943 21.2982 55.0544 20.3854C55.3797 19.5275 55.8724 18.748 56.5019 18.0955C57.1153 17.4497 57.847 16.9367 58.6542 16.5863C59.4792 16.2119 60.3713 16.0213 61.2723 16.0268C62.1775 16.0232 63.0749 16.1999 63.9155 16.5472C64.7156 16.8867 65.4428 17.3863 66.0553 18.0174C66.6765 18.6768 67.1681 19.4545 67.5028 20.3073C67.8667 21.2503 68.0464 22.2585 68.0314 23.2737H67.9937ZM50.4476 30.2344H46.9232V15.5845H41.599V11.9155H55.7592V15.5845H50.4476V30.2344ZM73.255 30.2344H69.8565V11.1218H73.255V30.2344ZM64.5952 23.2737C64.5964 22.754 64.5069 22.2383 64.3309 21.7515C64.1665 21.3104 63.9182 20.9078 63.6008 20.5675C63.3006 20.2457 62.9411 19.9891 62.5435 19.8129C61.7016 19.4745 60.7675 19.4745 59.9255 19.8129C59.5271 19.9876 59.1674 20.2443 58.8682 20.5675C58.5584 20.9091 58.3187 21.3118 58.1633 21.7515C57.8109 22.7381 57.8109 23.8224 58.1633 24.809C58.3267 25.2407 58.5656 25.6377 58.8682 25.9799C59.1698 26.3068 59.5285 26.5717 59.9255 26.7606C60.3195 26.9509 60.7493 27.0486 61.1842 27.0468C61.6167 27.0515 62.0454 26.9629 62.4429 26.7866C62.8387 26.6071 63.1975 26.351 63.5002 26.032C63.8146 25.6942 64.0625 25.2965 64.2302 24.861C64.4051 24.3739 64.4946 23.8584 64.4945 23.3388L64.5952 23.2737ZM85.2377 23.2737C85.2344 22.7954 85.1403 22.3224 84.9608 21.8816C84.795 21.4442 84.5517 21.0427 84.2433 20.6976C83.9375 20.3564 83.5752 20.0744 83.1734 19.8649C82.7822 19.6636 82.3518 19.5568 81.9147 19.5527C81.4841 19.5555 81.0576 19.6393 80.6561 19.7999C80.258 19.9573 79.8975 20.2013 79.5988 20.5155C79.2854 20.8516 79.0413 21.2499 78.8813 21.6864C78.7031 22.1949 78.6178 22.7331 78.6296 23.2737C78.619 23.7973 78.7044 24.3182 78.8813 24.809C79.0443 25.2439 79.2881 25.6417 79.5988 25.9799C79.8963 26.3019 80.2567 26.5547 80.6561 26.7215C81.0553 26.892 81.4828 26.9804 81.9147 26.9817C82.3518 26.9776 82.7822 26.8709 83.1734 26.6695C83.5783 26.4652 83.9415 26.1825 84.2433 25.8368C84.557 25.496 84.801 25.0933 84.9608 24.6528C85.148 24.218 85.2506 23.7495 85.2629 23.2737H85.2377ZM98.1896 19.6958C98.04 19.6399 97.8828 19.6091 97.7239 19.6047H97.2581C96.8268 19.612 96.4003 19.7001 95.9995 19.8649C95.5978 20.0334 95.2368 20.291 94.9422 20.6196C94.6291 20.9509 94.385 21.345 94.2247 21.7775C94.0466 22.2724 93.9611 22.7978 93.973 23.3258V24.2495C93.9563 24.417 93.9916 24.5855 94.0737 24.7309C94.1151 24.8706 94.1699 25.0058 94.2373 25.1342L98.1896 19.6958ZM111.368 19.6958C111.22 19.631 111.063 19.5914 110.902 19.5787L110.437 19.6047C110.005 19.612 109.579 19.7001 109.178 19.8649C108.776 20.0334 108.415 20.291 108.121 20.6196C107.808 20.9509 107.563 21.345 107.403 21.7775C107.225 22.2724 107.14 22.7978 107.151 23.3258V24.2495C107.135 24.417 107.17 24.5855 107.252 24.7309C107.294 24.8706 107.348 25.0058 107.416 25.1342L111.368 19.6958Z" fill="white"/>
</svg>
