<svg width="1920" height="1024" viewBox="0 0 1920 1024" fill="none" xmlns="http://www.w3.org/2000/svg">
<g clip-path="url(#clip0_1221_440)">
<path d="M1910.72 354.877L1899.52 350.461L1900.13 365.75L1910.72 354.877Z" fill="#E08075"/>
<path d="M1573.31 374.73L1577.09 365.85L1580.16 372.363L1573.31 374.73Z" fill="url(#paint0_linear_1221_440)"/>
<path d="M1749.78 653.478L1734.69 646.604L1734.67 663.768L1749.78 653.478Z" fill="url(#paint1_linear_1221_440)"/>
<path d="M1782.2 328.027L1775.14 335.718L1791.45 343.398L1782.2 328.027Z" fill="url(#paint2_linear_1221_440)"/>
<path d="M1784.84 386.5L1776.48 387.704L1782 397.344L1784.84 386.5Z" fill="#F39DA5"/>
<path d="M1435.09 378.908L1432.68 367.946L1440 373.478L1435.09 378.908Z" fill="#E08075"/>
<path d="M1491.99 341.642L1484.95 356.473L1501.49 358.422L1491.99 341.642Z" fill="#F9CAC2"/>
<path d="M1821.17 482.54L1818.77 471.578L1826.09 477.111L1821.17 482.54Z" fill="#F39DA5"/>
<path d="M1918.01 173.93L1930.37 173.278L1923.5 158.6L1918.01 173.93Z" fill="#E08075"/>
<path d="M1766.7 398.979L1755.5 394.563L1756.1 409.852L1766.7 398.979Z" fill="#E08075"/>
<path d="M1841.19 513.414L1835.98 524.843L1851.45 526.596L1841.19 513.414Z" fill="url(#paint3_linear_1221_440)"/>
<path d="M1812.46 223.922L1801.93 225.808L1807.06 218.526L1812.46 223.922Z" fill="url(#paint4_linear_1221_440)"/>
<path d="M1873.55 574.726L1861.25 583.678L1882.88 599.299L1873.55 574.726Z" fill="url(#paint5_linear_1221_440)"/>
<path d="M1632.59 755.738L1620.25 753.831L1624.23 769.506L1632.59 755.738Z" fill="#F9CAC2"/>
<path d="M1703.34 291.983L1715.25 271.61L1691.6 266.744L1703.34 291.983Z" fill="#F9CAC2"/>
<path d="M1784.84 386.5L1776.48 387.704L1782 397.344L1784.84 386.5Z" fill="#F39DA5"/>
<path d="M1788.14 710.829L1785.73 699.867L1793.05 705.403L1788.14 710.829Z" fill="#E08075"/>
<path d="M1530.76 776.201L1531.43 793.014L1553.74 783.714L1530.76 776.201Z" fill="url(#paint6_linear_1221_440)"/>
<path d="M1862.04 270.901L1866.52 255.049L1872.46 267.64L1862.04 270.901Z" fill="url(#paint7_linear_1221_440)"/>
<path d="M1867 164.371L1871.03 172.697L1878.4 164.514L1867 164.371Z" fill="#F9CAC2"/>
<path d="M1786.46 283.842L1779.42 288.301L1787.95 295.038L1786.46 283.842Z" fill="#E08075"/>
<path d="M1860.31 479.764L1864.34 488.09L1871.72 479.896L1860.31 479.764Z" fill="url(#paint8_linear_1221_440)"/>
<path d="M1790.2 504.708L1785.7 498.078L1791.91 499.666L1790.2 504.708Z" fill="url(#paint9_linear_1221_440)"/>
<path d="M1438.53 478.404L1442.46 470.377L1431.46 468.82L1438.53 478.404Z" fill="#E08075"/>
<path d="M1807.45 640.349L1812.56 651.307L1820.49 642.587L1807.45 640.349Z" fill="#F9CAC2"/>
<path d="M1400.61 489.735L1405.73 500.692L1413.66 491.973L1400.61 489.735Z" fill="#F9CAC2"/>
<path d="M1752.04 261.672L1747.55 255.034L1753.75 256.622L1752.04 261.672Z" fill="url(#paint10_linear_1221_440)"/>
<path d="M1828.44 613.93L1821.5 610.256L1827.54 608.564L1828.44 613.93Z" fill="url(#paint11_linear_1221_440)"/>
<path d="M1679.71 301.619C1679.64 302.143 1679.57 302.66 1679.5 303.165C1679.22 305.131 1678.29 306.875 1677.05 308.329C1674.43 311.353 1670.87 312.45 1667.38 314.026C1665.58 314.833 1663.79 315.855 1662.67 317.563C1662.46 317.881 1662.28 318.22 1662.12 318.571C1662.28 319.384 1662.5 320.178 1662.79 320.974C1664.65 325.92 1668.39 330.393 1671.93 334.194C1672.15 334.435 1671.79 336.28 1671.75 336.622C1671.7 337.194 1671.66 337.767 1671.6 338.336C1671.59 338.439 1671.48 338.995 1671.53 339.04C1668.29 335.572 1665.06 331.626 1663.02 327.281C1662.13 325.403 1661.49 323.371 1661.53 321.295C1661.54 320.837 1661.56 320.383 1661.59 319.934C1661.31 320.114 1661.65 316.766 1661.85 316.906C1661.92 316.059 1662 315.212 1662.26 314.409C1663.48 310.595 1667.45 309.304 1670.73 307.978C1674.16 306.575 1677.53 304.438 1679.15 300.868C1679.24 300.679 1679.32 300.482 1679.39 300.28C1679.3 299.764 1679.17 299.263 1678.99 298.748C1678.31 296.891 1677.13 295.249 1675.83 293.795C1673.17 290.831 1669.84 288.605 1667.24 285.575C1665.96 284.082 1664.82 282.401 1664.2 280.509C1663.49 278.36 1663.79 276.23 1663.98 274.054C1664.14 272.157 1664.3 270.387 1665.18 268.717C1666.03 267.147 1667.26 265.84 1668.52 264.634C1671.68 261.619 1674.94 259.02 1676.54 254.709C1676.86 253.848 1677.11 252.964 1677.3 252.056C1677.29 251.797 1677.28 251.545 1677.26 251.29C1677.06 248.929 1676.42 246.63 1675.37 244.485C1675.32 244.38 1675.41 243.808 1675.41 243.777C1675.45 243.208 1675.49 242.635 1675.54 242.062C1675.58 241.489 1675.63 240.916 1675.69 240.347C1675.7 240.204 1675.82 239.752 1675.76 239.643C1677.48 243.155 1677.77 246.682 1677.6 250.381C1677.71 250.013 1677.42 253.912 1677.34 253.596C1676.94 257.238 1676.16 260.651 1673.97 263.641C1671.76 266.675 1668.54 268.684 1666.17 271.554C1665.35 272.54 1664.78 273.579 1664.33 274.724C1664.38 274.937 1664.43 275.149 1664.49 275.358C1664.77 276.309 1665.19 277.224 1665.7 278.077C1667.79 281.605 1671.05 283.998 1673.99 286.713C1676.81 289.322 1679.72 292.583 1679.96 296.646C1680.02 297.652 1679.98 298.692 1679.9 299.734C1679.86 300.415 1679.78 301.23 1679.71 301.647L1679.71 301.619ZM1664.14 273.416C1664.15 273.636 1664.18 273.852 1664.21 274.064C1664.22 274.136 1664.23 274.208 1664.25 274.288C1664.5 272.468 1664.05 272.215 1664.14 273.416Z" fill="url(#paint12_linear_1221_440)"/>
<path d="M1452.8 445.718C1448.74 447.424 1444.4 447.841 1440.09 446.385C1437.7 445.572 1435.03 444.916 1432.87 443.494C1431.16 442.378 1429.83 440.776 1428.85 438.975C1426.86 435.341 1426.15 431.183 1424.71 427.331C1423.97 425.337 1423.04 423.234 1421.47 421.759C1420.48 421.799 1419.5 421.976 1418.56 422.241C1414.28 423.432 1410.8 426.5 1406.44 427.506C1404.42 427.977 1402.61 427.707 1400.67 427.104C1400.93 427.445 1396.63 425.941 1396.5 425.687C1395.07 425.123 1393.71 424.414 1392.59 423.268C1388.57 419.152 1388.73 413.089 1389.56 407.91C1389.53 408.113 1395.13 409.559 1395.09 409.845C1394.34 414.523 1394.1 419.767 1397.04 423.906C1397.56 424.628 1398.15 425.295 1398.83 425.853C1400.56 425.806 1402.25 425.267 1403.81 424.59C1407.97 422.798 1411.79 419.687 1416.58 419.807C1419.03 419.864 1421.53 421.067 1423.83 421.897C1426.02 422.694 1427.61 423.955 1428.81 426.068C1430.89 429.728 1431.59 433.981 1433.04 437.886C1433.73 439.747 1434.6 441.573 1435.87 443.114C1436.51 443.886 1437.24 444.597 1438.05 445.17C1438.11 445.219 1438.18 445.256 1438.25 445.302C1442.47 445.735 1446.49 444.267 1450.18 442.4C1453.75 440.598 1457.4 438.379 1461.49 438.017C1464.02 437.793 1466.28 438.599 1468.67 439.44C1471.26 440.342 1473.69 441.156 1475.78 443.086C1480.08 447.049 1481.56 452.939 1482.91 458.424C1482.85 458.203 1480.42 457.584 1480.13 457.486C1479.8 457.366 1477.46 456.833 1477.38 456.489C1476.19 451.65 1474.94 446.554 1471.66 442.643C1470.92 441.769 1470.11 440.969 1469.21 440.282C1469.05 440.159 1468.89 440.047 1468.73 439.936C1467.2 439.848 1465.69 440.08 1464.24 440.496C1460.19 441.665 1456.67 444.078 1452.82 445.698L1452.8 445.718ZM1438.39 445.425C1438.76 445.664 1439.13 445.881 1439.52 446.073C1440.97 446.788 1441.41 446.177 1438.39 445.425ZM1469.83 440.069C1469.55 440.023 1469.27 439.988 1468.98 439.966C1471.03 440.835 1471.3 440.311 1469.83 440.069Z" fill="url(#paint13_linear_1221_440)"/>
<path d="M1770.2 677.377C1768.31 681.726 1764.09 684.374 1759.99 686.147C1757.81 687.097 1755.48 687.664 1753.3 688.638C1752.22 689.118 1751.2 689.728 1750.37 690.582C1750.26 690.703 1750.14 690.828 1750.03 690.949C1749.64 700.064 1758.38 707.738 1756.01 717.061C1755.3 719.847 1754.31 722.738 1753.12 725.325C1752 727.786 1750.26 729.905 1748.14 731.494C1743.93 734.66 1738.52 735.614 1733.29 735.316C1733.41 735.323 1734.19 732.651 1734.27 732.402C1734.36 732.133 1735.08 729.499 1735.31 729.512C1739.9 729.779 1744.59 729.079 1748.56 726.757C1750.59 725.561 1752.37 723.944 1753.74 721.971C1753.94 721.681 1754.12 721.386 1754.31 721.083C1754.4 720.46 1754.45 719.823 1754.44 719.149C1754.35 714.324 1751.81 709.968 1749.97 705.612C1748.99 703.277 1748.24 700.852 1748.07 698.325C1747.89 695.829 1748.5 693.719 1749.28 691.441C1750.09 689.077 1750.71 686.381 1752.53 684.618C1754.27 682.932 1756.68 682.299 1758.91 681.534C1763.25 680.053 1767.79 677.931 1770.68 674.188C1770.82 674.004 1770.96 673.812 1771.09 673.619C1771.13 673.198 1771.16 672.772 1771.14 672.337C1771.06 670.342 1770.53 668.377 1769.85 666.491C1768.43 662.524 1766.29 658.755 1765.56 654.565C1765.18 652.379 1765.31 650.214 1765.91 648.127C1766.03 647.696 1766.16 647.268 1766.29 646.833C1766.31 646.726 1766.38 646.504 1766.48 646.223C1767.13 644.102 1767.87 641.963 1768.84 640.02C1770.84 635.982 1774.62 633.032 1779.05 632.442C1778.84 632.47 1778.17 635.061 1778.07 635.357C1777.95 635.689 1777.37 638.199 1777.03 638.247C1773.09 638.776 1769.68 641.152 1767.55 644.538C1767.51 644.593 1767.48 644.648 1767.45 644.703C1767.41 645.037 1767.37 645.379 1767.36 645.718C1767.29 647.753 1767.71 649.78 1768.34 651.731C1769.62 655.744 1771.8 659.458 1772.75 663.578C1773.21 665.577 1773.33 667.641 1772.88 669.624C1772.29 672.248 1771.3 674.928 1770.23 677.362L1770.2 677.377ZM1700.79 741.811C1700.73 741.901 1700.66 741.991 1700.6 742.09C1700.45 742.317 1700.34 742.578 1700.19 742.805C1700.42 742.46 1700.62 742.13 1700.79 741.811ZM1612.24 768.32C1612.18 768.714 1612.14 769.107 1612.11 769.493C1612.99 767.453 1612.51 766.597 1612.24 768.32ZM1722.35 723.828C1722.49 723.612 1722.63 723.388 1722.76 723.168C1722.91 722.924 1723.03 722.676 1723.16 722.428C1723.92 720.859 1723.04 720.811 1722.36 723.832L1722.35 723.828Z" fill="url(#paint14_linear_1221_440)"/>
<path d="M1716.05 483.329C1711.41 484.409 1706.43 483.822 1701.9 485.346C1701.04 485.629 1700.23 485.993 1699.47 486.477C1699.02 487.989 1698.95 489.61 1699.09 491.208C1699.46 495.437 1701.03 499.492 1701.51 503.709C1701.74 505.739 1701.7 507.815 1701.08 509.733C1700.12 512.677 1697.77 515.193 1695.9 517.513C1692.61 521.593 1687.06 522.898 1682 522.517C1678.92 522.29 1675.8 521.24 1672.74 521.862C1671.45 522.127 1670.24 522.704 1669.2 523.501C1669.15 523.616 1669.08 523.734 1669.04 523.852C1666.54 529.964 1668.53 536.887 1670.35 543.075C1670.45 543.429 1668.79 545.199 1668.55 545.509C1668.11 546.077 1667.68 546.644 1667.25 547.212C1667.18 547.306 1666.68 547.837 1666.7 547.905C1665.1 542.435 1663.32 536.446 1664.7 530.834C1665.4 527.992 1666.93 525.824 1668.63 523.575C1670.29 521.374 1671.85 518.963 1674.37 517.739C1676.88 516.514 1679.67 516.838 1682.38 517.264C1685.1 517.695 1687.76 517.932 1690.46 517.505C1692.91 517.12 1695.34 516.288 1697.35 514.812C1697.66 513.938 1697.85 513.018 1697.93 512.083C1698.67 504.3 1692.31 495.37 1697.3 488.388C1697.42 488.223 1697.53 488.062 1697.65 487.889C1697.28 487.992 1699.36 485.223 1700.09 484.483C1700.93 483.438 1701.85 482.471 1702.92 481.763C1704.78 480.522 1707.01 480.013 1709.2 479.709C1713.77 479.071 1718.59 479.375 1722.85 477.417C1724.79 476.522 1726.55 475.26 1728.07 473.753C1728.19 473.54 1728.31 473.328 1728.41 473.119C1729 471.997 1729.49 470.812 1729.88 469.602C1731.41 464.854 1731.37 459.584 1729.37 454.83C1729.26 454.56 1730.97 452.659 1731.17 452.396C1731.37 452.138 1733.12 450.258 1733.02 450C1734.8 454.243 1735.03 458.912 1733.96 463.26C1732.67 468.447 1729.46 472.498 1726.25 476.521C1723.63 479.827 1720.15 482.361 1716.03 483.317L1716.05 483.329ZM1696.72 516.24C1696.88 515.949 1697.03 515.642 1697.16 515.334C1697.19 515.259 1697.22 515.176 1697.25 515.093C1695.37 517.209 1695.82 517.885 1696.72 516.24Z" fill="url(#paint15_linear_1221_440)"/>
<path d="M1624.64 298.94L1641.09 304.355L1639.01 282.308L1624.64 298.94Z" fill="#F39DA5"/>
<path d="M1562.25 314.892L1557.76 308.254L1563.96 309.842L1562.25 314.892Z" fill="#F39DA5"/>
<path d="M1606.1 324.408L1601.21 316.871L1595.16 325.778L1606.1 324.408Z" fill="#F9CAC2"/>
<path d="M406.223 267.167L426.955 250.245L398.649 239.243L406.223 267.167Z" fill="#F9CAC2"/>
<path d="M365.953 421.506L378.907 415.087L366.784 405.632L365.953 421.506Z" fill="url(#paint16_linear_1221_440)"/>
<path d="M36.8333 560.278L46.4777 545.294L15.0076 544.635L36.8333 560.278Z" fill="url(#paint17_linear_1221_440)"/>
<path d="M293.237 482.06L293.743 493.598L309.031 485.891L293.237 482.06Z" fill="#E08075"/>
<path d="M650.052 369.805L663.942 368.832L658.845 355L650.052 369.805Z" fill="url(#paint18_linear_1221_440)"/>
<path d="M478.952 762.391L468.233 763.383L473.49 757.726L478.952 762.391Z" fill="url(#paint19_linear_1221_440)"/>
<path d="M350.35 217.033L375.013 215.31L365.965 190.752L350.35 217.033Z" fill="url(#paint20_linear_1221_440)"/>
<path d="M671.39 490.405L671.133 506.438L688.657 498.343L671.39 490.405Z" fill="url(#paint21_linear_1221_440)"/>
<path d="M329.292 604.066L340.161 606.389L340.69 589.148L329.292 604.066Z" fill="url(#paint22_linear_1221_440)"/>
<path d="M386.639 576.306L391.562 582.763L398.851 573.617L386.639 576.306Z" fill="#F39DA5"/>
<path d="M551.241 879.039L541.27 886.163L543.606 877.457L551.241 879.039Z" fill="#E08075"/>
<path d="M485.871 847.043L503.975 846.012L498.615 831.22L485.871 847.043Z" fill="#F9CAC2"/>
<path d="M464.753 503.068L454.782 510.193L457.117 501.486L464.753 503.068Z" fill="#F39DA5"/>
<path d="M108.186 553.926L102.055 543.865L90.2816 556.493L108.186 553.926Z" fill="#E08075"/>
<path d="M408.294 586.399L408.8 597.937L424.088 590.23L408.294 586.399Z" fill="#E08075"/>
<path d="M485.632 473.017L499.522 472.043L494.425 458.212L485.632 473.017Z" fill="url(#paint23_linear_1221_440)"/>
<path d="M210.614 622.982L217.283 631.043L207.509 630.133L210.614 622.982Z" fill="url(#paint24_linear_1221_440)"/>
<path d="M336.289 369.978L330.791 377.674L342.587 378.598L336.289 369.978Z" fill="#F9CAC2"/>
<path d="M282.51 404.563L289.003 388.762L270.273 391.462L282.51 404.563Z" fill="#E08075"/>
<path d="M531.175 418.892L545.585 424.99L551.751 399.656L531.175 418.892Z" fill="url(#paint25_linear_1221_440)"/>
<path d="M332.159 686.385L306.329 685.926L311.885 708.026L332.159 686.385Z" fill="#F9CAC2"/>
<path d="M386.639 576.306L391.562 582.763L398.851 573.617L386.639 576.306Z" fill="#F39DA5"/>
<path d="M709.403 432.33L699.433 439.454L701.775 430.753L709.403 432.33Z" fill="#E08075"/>
<path d="M525.846 638.121L542.789 629.574L523.213 615L525.846 638.121Z" fill="url(#paint26_linear_1221_440)"/>
<path d="M232.855 559.795L214.832 563.454L224.937 552.574L232.855 559.795Z" fill="url(#paint27_linear_1221_440)"/>
<path d="M462.307 335.728L468.685 341.516L474.677 331.287L462.307 335.728Z" fill="url(#paint28_linear_1221_440)"/>
<path d="M287.348 561.182L294.035 553.844L282.394 551.464L287.348 561.182Z" fill="#F9CAC2"/>
<path d="M394.562 392.981L406.935 387.838L398.444 380.034L394.562 392.981Z" fill="#E08075"/>
<path d="M283.069 619.523L290.701 623.348L293.73 613.027L283.069 619.523Z" fill="#E08075"/>
<path d="M442.359 470.944L449.046 463.606L437.391 461.228L442.359 470.944Z" fill="url(#paint29_linear_1221_440)"/>
<path d="M502.24 520.107L497.549 526.958L496.408 521.026L502.24 520.107Z" fill="url(#paint30_linear_1221_440)"/>
<path d="M770.015 562.948L782.396 557.809L773.897 550L770.015 562.948Z" fill="url(#paint31_linear_1221_440)"/>
<path d="M428.965 308.905L437.076 309.591L435.562 297.586L428.965 308.905Z" fill="url(#paint32_linear_1221_440)"/>
<path d="M649.171 832.924L639.301 833.382L642.607 843.354L649.171 832.924Z" fill="#E08075"/>
<path d="M628.984 446.585L637.829 437.13L625.45 434.545L628.984 446.585Z" fill="#F9CAC2"/>
<path d="M308.213 423.918L317.576 423.677L314.702 414.089L308.213 423.918Z" fill="#F39DA5"/>
<path d="M678.688 860.726L687.534 851.272L675.155 848.687L678.688 860.726Z" fill="#F9CAC2"/>
<path d="M635.058 718.575L643.903 709.12L631.524 706.535L635.058 718.575Z" fill="#F9CAC2"/>
<path d="M277.9 658.277L273.203 665.135L272.062 659.203L277.9 658.277Z" fill="url(#paint33_linear_1221_440)"/>
<path d="M592.78 440.004L592.139 447.592L587.725 443.291L592.78 440.004Z" fill="url(#paint34_linear_1221_440)"/>
<path d="M353.857 702.873C354.414 702.685 354.964 702.505 355.501 702.326C357.601 701.649 359.758 701.607 361.766 701.971C365.954 702.745 368.623 705.208 371.744 707.39C373.346 708.515 375.162 709.537 377.368 709.674C377.782 709.705 378.199 709.694 378.622 709.664C379.369 709.155 380.072 708.604 380.741 707.986C384.889 704.134 387.732 698.928 389.992 694.208C390.136 693.911 392.148 693.355 392.507 693.225C393.103 692.997 393.698 692.768 394.294 692.551C394.402 692.511 395.01 692.347 395.033 692.284C392.977 696.602 390.436 701.134 386.975 704.865C385.479 706.477 383.721 707.959 381.621 708.895C381.156 709.099 380.691 709.291 380.224 709.472C380.528 709.621 377.02 710.901 377.071 710.665C376.192 711.007 375.304 711.331 374.383 711.486C370.017 712.245 366.972 709.529 364.198 707.412C361.276 705.195 357.647 703.379 353.351 703.69C353.122 703.704 352.886 703.726 352.652 703.759C352.176 704.079 351.729 704.419 351.293 704.812C349.726 706.242 348.596 707.989 347.712 709.756C345.906 713.353 345.134 717.165 343.236 720.746C342.303 722.513 341.116 724.244 339.491 725.647C337.645 727.237 335.376 727.981 333.109 728.838C331.133 729.587 329.285 730.277 327.218 730.312C325.268 730.337 323.416 729.921 321.648 729.427C317.229 728.193 313.186 726.682 308.151 727.35C307.143 727.481 306.149 727.689 305.152 727.951C304.898 728.083 304.65 728.208 304.403 728.346C302.119 729.608 300.093 731.212 298.401 733.087C298.318 733.177 297.706 733.372 297.672 733.383C297.084 733.617 296.489 733.846 295.894 734.074C295.298 734.303 294.703 734.532 294.107 734.749C293.958 734.806 293.451 734.914 293.369 735.016C296.136 731.943 299.548 730.057 303.341 728.485C302.922 728.562 306.965 726.99 306.682 727.204C310.512 725.837 314.285 724.904 318.251 725.337C322.272 725.775 325.708 727.528 329.634 728.172C330.983 728.395 332.279 728.391 333.625 728.23C333.816 728.088 334.007 727.947 334.19 727.801C335.022 727.124 335.755 726.346 336.387 725.523C339.011 722.14 339.976 718.301 341.41 714.587C342.786 711.015 344.781 707.071 348.755 704.98C349.739 704.462 350.797 704.005 351.879 703.587C352.581 703.306 353.435 702.993 353.884 702.857L353.857 702.873ZM332.397 728.999C332.611 728.885 332.817 728.765 333.016 728.641C333.083 728.595 333.149 728.55 333.221 728.497C331.286 729.139 331.227 729.628 332.397 728.999Z" fill="url(#paint35_linear_1221_440)"/>
<path d="M1341.29 597.871L1347.95 605.932L1338.18 605.022L1341.29 597.871Z" fill="url(#paint36_linear_1221_440)"/>
<path d="M1363.53 534.684L1345.5 538.343L1355.61 527.464L1363.53 534.684Z" fill="url(#paint37_linear_1221_440)"/>
<path d="M1418.02 536.071L1424.71 528.733L1413.07 526.353L1418.02 536.071Z" fill="#F9CAC2"/>
<path d="M1413.74 594.412L1421.37 598.237L1424.4 587.917L1413.74 594.412Z" fill="#E08075"/>
<path d="M1408.57 633.166L1403.87 640.024L1402.73 634.092L1408.57 633.166Z" fill="url(#paint38_linear_1221_440)"/>
<path d="M1762.12 843.087C1762.54 843.494 1762.95 843.898 1763.36 844.291C1764.93 845.841 1765.97 847.734 1766.57 849.683C1767.82 853.754 1766.87 857.26 1766.38 861.036C1766.12 862.976 1766.06 865.059 1766.95 867.079C1767.12 867.46 1767.32 867.825 1767.54 868.186C1768.34 868.613 1769.15 868.981 1770.01 869.289C1775.34 871.187 1781.27 871.301 1786.5 871.123C1786.83 871.114 1788.26 872.641 1788.54 872.899C1789.02 873.321 1789.49 873.743 1789.96 874.172C1790.05 874.25 1790.47 874.712 1790.54 874.703C1785.76 874.877 1780.57 874.719 1775.66 873.374C1773.54 872.793 1771.41 871.92 1769.61 870.49C1769.21 870.172 1768.83 869.848 1768.45 869.518C1768.46 869.857 1765.7 867.337 1765.94 867.273C1765.23 866.651 1764.53 866.015 1763.97 865.269C1761.28 861.749 1762.28 857.793 1762.87 854.354C1763.49 850.739 1763.42 846.682 1761.16 843.015C1761.04 842.819 1760.91 842.62 1760.77 842.428C1760.27 842.153 1759.76 841.914 1759.21 841.709C1757.22 840.981 1755.15 840.787 1753.17 840.819C1749.15 840.881 1745.41 841.958 1741.36 841.931C1739.36 841.92 1737.27 841.668 1735.28 840.876C1733.02 839.974 1731.31 838.305 1729.5 836.691C1727.92 835.286 1726.46 833.966 1725.47 832.149C1724.55 830.432 1724.06 828.597 1723.68 826.801C1722.73 822.312 1722.2 818.028 1719.28 813.872C1718.7 813.04 1718.06 812.254 1717.36 811.491C1717.13 811.327 1716.9 811.165 1716.67 811.009C1714.49 809.568 1712.13 808.512 1709.69 807.879C1709.57 807.847 1709.11 807.394 1709.09 807.369C1708.61 806.956 1708.13 806.534 1707.65 806.112C1707.17 805.69 1706.7 805.268 1706.23 804.84C1706.11 804.734 1705.78 804.334 1705.65 804.308C1709.66 805.342 1712.9 807.496 1716.05 810.132C1715.79 809.796 1719.05 812.655 1718.73 812.503C1721.72 815.267 1724.29 818.181 1725.74 821.898C1727.21 825.666 1727.24 829.523 1728.48 833.302C1728.91 834.601 1729.51 835.749 1730.28 836.868C1730.49 836.972 1730.71 837.076 1730.92 837.171C1731.9 837.595 1732.93 837.886 1733.95 838.066C1738.17 838.829 1742.02 837.909 1745.97 837.465C1749.78 837.033 1754.2 836.979 1757.89 839.537C1758.8 840.169 1759.7 840.896 1760.57 841.662C1761.14 842.156 1761.81 842.767 1762.14 843.103L1762.12 843.087ZM1729.03 836.134C1729.23 836.271 1729.43 836.399 1729.63 836.518C1729.7 836.556 1729.77 836.593 1729.85 836.633C1728.39 835.214 1727.93 835.388 1729.03 836.134Z" fill="url(#paint39_linear_1221_440)"/>
<path d="M546.416 738.144C550.633 737.812 554.321 738.955 556.909 742.084C558.342 743.827 560.081 745.501 560.983 747.809C561.696 749.624 561.825 751.816 561.569 754.096C561.051 758.696 559.211 763.386 558.131 768.019C557.569 770.416 557.095 772.997 557.492 775.145C558.299 775.462 559.181 775.633 560.081 775.695C564.178 775.994 568.718 773.999 572.762 774.519C574.644 774.759 575.929 775.709 577.122 777.062C577.113 776.604 579.66 779.777 579.616 780.096C580.434 781.223 581.104 782.476 581.334 784.108C582.151 789.964 578.522 796.368 574.869 801.582C575.012 801.378 571.388 797.784 571.587 797.495C574.888 792.785 578.108 787.284 578.157 781.796C578.163 780.838 578.079 779.91 577.863 779.068C576.459 778.485 574.806 778.441 573.172 778.591C568.828 778.978 563.989 780.894 560.253 779.015C558.337 778.057 557.038 775.858 555.695 774.133C554.407 772.479 553.872 770.554 554.137 767.863C554.598 763.202 556.504 758.415 557.603 753.722C558.13 751.485 558.493 749.221 558.375 747.116C558.313 746.058 558.144 745.034 557.829 744.127C557.808 744.051 557.776 743.987 557.746 743.913C554.638 741.905 550.595 741.999 546.58 742.638C542.696 743.25 538.517 744.28 535.05 743.168C532.913 742.483 531.581 740.796 530.161 739.022C528.628 737.117 527.164 735.359 526.616 732.536C525.486 726.739 527.709 719.919 529.81 713.583C529.726 713.838 531.301 715.387 531.476 715.599C531.672 715.848 533.224 717.272 533.092 717.67C531.239 723.261 529.287 729.147 529.636 734.516C529.717 735.717 529.9 736.867 530.222 737.93C530.276 738.119 530.339 738.296 530.403 738.474C531.568 739.127 532.908 739.435 534.301 739.521C538.197 739.758 542.385 738.472 546.388 738.158L546.416 738.144ZM557.709 743.732C557.554 743.341 557.378 742.972 557.182 742.626C556.442 741.333 555.738 741.823 557.709 743.732ZM529.607 737.93C529.801 738.081 530.006 738.221 530.221 738.35C529.097 736.676 528.575 737.133 529.607 737.93Z" fill="url(#paint40_linear_1221_440)"/>
<path d="M574.052 556.647C579.378 557.488 583.343 560.899 586.3 564.388C587.879 566.245 589.066 568.327 590.67 570.167C591.465 571.087 592.39 571.921 593.544 572.519C593.706 572.597 593.874 572.681 594.035 572.76C604.356 571.137 610.911 561.204 621.934 561.417C625.227 561.478 628.705 561.786 631.888 562.342C634.915 562.87 637.704 564.053 639.986 565.709C644.532 569 646.877 573.908 647.774 578.911C647.755 578.804 644.572 578.649 644.271 578.619C643.948 578.592 640.823 578.486 640.785 578.273C640.001 573.868 638.113 569.592 634.571 566.347C632.749 564.682 630.515 563.351 627.979 562.49C627.606 562.366 627.232 562.254 626.849 562.148C626.128 562.198 625.401 562.285 624.647 562.444C619.252 563.577 614.962 566.932 610.506 569.617C608.117 571.054 605.571 572.29 602.776 573.007C600.018 573.722 597.506 573.604 594.766 573.364C591.919 573.107 588.747 573.108 586.34 571.772C584.039 570.497 582.76 568.356 581.377 566.415C578.693 562.639 575.24 558.803 570.359 556.891C570.12 556.799 569.872 556.712 569.624 556.626C569.142 556.682 568.658 556.75 568.174 556.862C565.953 557.365 563.872 558.297 561.917 559.352C557.8 561.564 554.074 564.409 549.541 566.006C547.178 566.841 544.719 567.197 542.235 567.082C541.722 567.061 541.21 567.028 540.691 567C540.567 567.006 540.301 566.985 539.963 566.957C537.428 566.8 534.854 566.57 532.446 566.08C527.44 565.062 523.242 562.139 521.536 558.079C521.614 558.266 524.68 558.335 525.038 558.372C525.439 558.412 528.392 558.414 528.525 558.718C530.049 562.333 533.519 565.041 537.821 566.315C537.89 566.334 537.96 566.354 538.029 566.373C538.413 566.338 538.806 566.297 539.188 566.231C541.489 565.859 543.665 565.017 545.708 564.002C549.907 561.909 553.564 559.045 557.963 557.243C560.099 556.373 562.388 555.814 564.718 555.803C567.804 555.794 571.043 556.139 574.027 556.62L574.052 556.647ZM662.719 608.219C662.836 608.262 662.953 608.304 663.078 608.341C663.368 608.433 663.687 608.483 663.978 608.574C663.536 608.431 663.118 608.315 662.719 608.219ZM713.334 686.157C713.789 686.129 714.241 686.082 714.68 686.021C712.183 685.633 711.335 686.276 713.334 686.157ZM637.459 591.765C637.183 591.675 636.898 591.591 636.62 591.513C636.313 591.433 636.004 591.365 635.695 591.296C633.756 590.921 633.909 591.764 637.461 591.752L637.459 591.765Z" fill="url(#paint41_linear_1221_440)"/>
<path d="M178.889 459.842C180.722 464.169 180.72 468.992 183.042 473.18C183.474 473.968 183.992 474.711 184.64 475.388C186.407 475.674 188.247 475.589 190.033 475.3C194.761 474.544 199.132 472.649 203.831 471.786C206.093 471.374 208.443 471.211 210.692 471.622C214.143 472.256 217.296 474.264 220.164 475.831C225.208 478.585 227.418 483.769 227.658 488.65C227.808 491.609 227.036 494.698 228.144 497.56C228.614 498.772 229.426 499.87 230.464 500.791C230.6 500.832 230.742 500.88 230.882 500.91C238.115 502.714 245.67 500.147 252.419 497.821C252.804 497.685 255.025 499.11 255.406 499.309C256.104 499.667 256.803 500.026 257.501 500.384C257.617 500.446 258.282 500.872 258.357 500.844C252.391 502.9 245.862 505.173 239.342 504.396C236.04 503.999 233.388 502.743 230.624 501.334C227.918 499.956 224.988 498.692 223.272 496.403C221.555 494.114 221.553 491.422 221.675 488.787C221.8 486.141 221.717 483.581 220.876 481.035C220.117 478.731 218.855 476.482 216.923 474.707C215.895 474.497 214.83 474.396 213.763 474.408C204.875 474.449 195.633 481.391 187.085 477.283C186.884 477.185 186.687 477.094 186.477 477C186.642 477.339 183.239 475.621 182.306 474.989C181.015 474.289 179.8 473.498 178.859 472.547C177.213 470.889 176.341 468.803 175.708 466.736C174.381 462.422 174.087 457.791 171.312 453.906C170.044 452.134 168.385 450.573 166.481 449.258C166.226 449.166 165.97 449.075 165.72 448.992C164.375 448.54 162.973 448.189 161.554 447.927C155.99 446.922 150.042 447.465 144.937 449.827C144.648 449.965 142.274 448.508 141.951 448.34C141.633 448.18 139.277 446.683 139 446.804C143.556 444.694 148.799 444.027 153.851 444.638C159.881 445.374 164.88 448.05 169.848 450.732C173.93 452.929 177.252 456.009 178.878 459.858L178.889 459.842ZM218.619 475.17C218.269 475.047 217.902 474.932 217.537 474.836C217.448 474.811 217.35 474.791 217.252 474.77C219.891 476.365 220.596 475.873 218.619 475.17Z" fill="url(#paint42_linear_1221_440)"/>
<path d="M364.317 802.662L362.483 786.228L341 798.355L364.317 802.662Z" fill="#F39DA5"/>
<path d="M424.618 797.893L419.921 804.751L418.78 798.819L424.618 797.893Z" fill="#F39DA5"/>
<path d="M412.822 756.296L407.317 763.998L419.119 764.915L412.822 756.296Z" fill="#F9CAC2"/>
<path d="M1409.63 747.868L1430.36 730.946L1402.06 719.945L1409.63 747.868Z" fill="#F9CAC2"/>
<path d="M1561.47 637.753L1574.42 631.335L1562.3 621.88L1561.47 637.753Z" fill="url(#paint43_linear_1221_440)"/>
<path d="M1852.05 722.805L1865.94 721.832L1860.85 708L1852.05 722.805Z" fill="url(#paint44_linear_1221_440)"/>
<path d="M1545.86 433.28L1570.53 431.558L1561.48 407L1545.86 433.28Z" fill="url(#paint45_linear_1221_440)"/>
<path d="M1681.14 689.264L1695.03 688.291L1689.94 674.459L1681.14 689.264Z" fill="url(#paint46_linear_1221_440)"/>
<path d="M1531.8 586.226L1526.3 593.921L1538.1 594.845L1531.8 586.226Z" fill="#F9CAC2"/>
<path d="M1478.02 620.811L1484.52 605.01L1465.79 607.71L1478.02 620.811Z" fill="#E08075"/>
<path d="M1592.85 581.856L1599.23 587.644L1605.22 577.415L1592.85 581.856Z" fill="url(#paint47_linear_1221_440)"/>
<path d="M1650.01 420.948L1662.39 415.804L1653.9 408L1650.01 420.948Z" fill="#E08075"/>
<path d="M1637.87 687.191L1644.56 679.854L1632.9 677.476L1637.87 687.191Z" fill="url(#paint48_linear_1221_440)"/>
<path d="M1569.82 537.979L1582.2 532.84L1573.7 525.031L1569.82 537.979Z" fill="url(#paint49_linear_1221_440)"/>
<path d="M1257.41 598.319L1265.52 599.005L1264.01 587L1257.41 598.319Z" fill="url(#paint50_linear_1221_440)"/>
<path d="M1503.73 640.165L1513.09 639.924L1510.21 630.337L1503.73 640.165Z" fill="#F39DA5"/>
</g>
<defs>
<linearGradient id="paint0_linear_1221_440" x1="1573.83" y1="367.384" x2="1576.9" y2="373.897" gradientUnits="userSpaceOnUse">
<stop offset="0.16" stop-color="#F6C52F"/>
<stop offset="0.89" stop-color="#D39A01"/>
</linearGradient>
<linearGradient id="paint1_linear_1221_440" x1="1742.83" y1="649.137" x2="1734.06" y2="663.331" gradientUnits="userSpaceOnUse">
<stop stop-color="#A89114"/>
<stop offset="0.08" stop-color="#BDA10D"/>
<stop offset="0.2" stop-color="#D8B825"/>
<stop offset="0.32" stop-color="#EEC935"/>
<stop offset="0.44" stop-color="#FCD33E"/>
<stop offset="0.56" stop-color="#FFD641"/>
<stop offset="0.64" stop-color="#FBD33E"/>
<stop offset="0.74" stop-color="#EEC834"/>
<stop offset="0.85" stop-color="#D7B623"/>
<stop offset="0.95" stop-color="#B99E0A"/>
<stop offset="1" stop-color="#A89114"/>
</linearGradient>
<linearGradient id="paint2_linear_1221_440" x1="1778.65" y1="329.698" x2="1786.26" y2="345.844" gradientUnits="userSpaceOnUse">
<stop offset="0.16" stop-color="#F6C52F"/>
<stop offset="0.89" stop-color="#D39A01"/>
</linearGradient>
<linearGradient id="paint3_linear_1221_440" x1="1838.52" y1="514.675" x2="1845.46" y2="529.418" gradientUnits="userSpaceOnUse">
<stop stop-color="#A88112"/>
<stop offset="0.56" stop-color="#FFD641"/>
<stop offset="0.95" stop-color="#A98212"/>
<stop offset="1" stop-color="#9F7913"/>
</linearGradient>
<linearGradient id="paint4_linear_1221_440" x1="1804.87" y1="228.134" x2="1810.17" y2="220.968" gradientUnits="userSpaceOnUse">
<stop stop-color="#A88112"/>
<stop offset="0.56" stop-color="#FFD641"/>
<stop offset="0.95" stop-color="#A98212"/>
<stop offset="1" stop-color="#9F7913"/>
</linearGradient>
<linearGradient id="paint5_linear_1221_440" x1="1868.13" y1="576.074" x2="1874.62" y2="601.381" gradientUnits="userSpaceOnUse">
<stop offset="0.16" stop-color="#F6C52F"/>
<stop offset="0.89" stop-color="#D39A01"/>
</linearGradient>
<linearGradient id="paint6_linear_1221_440" x1="1535.75" y1="773.85" x2="1542.82" y2="788.86" gradientUnits="userSpaceOnUse">
<stop stop-color="#A89114"/>
<stop offset="0.08" stop-color="#BDA10D"/>
<stop offset="0.2" stop-color="#D8B825"/>
<stop offset="0.32" stop-color="#EEC935"/>
<stop offset="0.44" stop-color="#FCD33E"/>
<stop offset="0.56" stop-color="#FFD641"/>
<stop offset="0.64" stop-color="#FBD33E"/>
<stop offset="0.74" stop-color="#EEC834"/>
<stop offset="0.85" stop-color="#D7B623"/>
<stop offset="0.95" stop-color="#B99E0A"/>
<stop offset="1" stop-color="#A89114"/>
</linearGradient>
<linearGradient id="paint7_linear_1221_440" x1="1861.64" y1="257.351" x2="1867.57" y2="269.942" gradientUnits="userSpaceOnUse">
<stop offset="0.16" stop-color="#F6C52F"/>
<stop offset="0.89" stop-color="#D39A01"/>
</linearGradient>
<linearGradient id="paint8_linear_1221_440" x1="1859.86" y1="482.083" x2="1870.73" y2="484.562" gradientUnits="userSpaceOnUse">
<stop stop-color="#A89114"/>
<stop offset="0.08" stop-color="#BDA10D"/>
<stop offset="0.2" stop-color="#D8B825"/>
<stop offset="0.32" stop-color="#EEC935"/>
<stop offset="0.44" stop-color="#FCD33E"/>
<stop offset="0.56" stop-color="#FFD641"/>
<stop offset="0.64" stop-color="#FBD33E"/>
<stop offset="0.74" stop-color="#EEC834"/>
<stop offset="0.85" stop-color="#D7B623"/>
<stop offset="0.95" stop-color="#B99E0A"/>
<stop offset="1" stop-color="#A89114"/>
</linearGradient>
<linearGradient id="paint9_linear_1221_440" x1="1785.18" y1="500.712" x2="1791.42" y2="502.135" gradientUnits="userSpaceOnUse">
<stop offset="0.16" stop-color="#F6C52F"/>
<stop offset="0.89" stop-color="#D39A01"/>
</linearGradient>
<linearGradient id="paint10_linear_1221_440" x1="1747.02" y1="257.678" x2="1753.27" y2="259.101" gradientUnits="userSpaceOnUse">
<stop stop-color="#A89114"/>
<stop offset="0.08" stop-color="#BDA10D"/>
<stop offset="0.2" stop-color="#D8B825"/>
<stop offset="0.32" stop-color="#EEC935"/>
<stop offset="0.44" stop-color="#FCD33E"/>
<stop offset="0.56" stop-color="#FFD641"/>
<stop offset="0.64" stop-color="#FBD33E"/>
<stop offset="0.74" stop-color="#EEC834"/>
<stop offset="0.85" stop-color="#D7B623"/>
<stop offset="0.95" stop-color="#B99E0A"/>
<stop offset="1" stop-color="#A89114"/>
</linearGradient>
<linearGradient id="paint11_linear_1221_440" x1="1822.29" y1="612.786" x2="1828.31" y2="611.037" gradientUnits="userSpaceOnUse">
<stop stop-color="#A89114"/>
<stop offset="0.08" stop-color="#BDA10D"/>
<stop offset="0.2" stop-color="#D8B825"/>
<stop offset="0.32" stop-color="#EEC935"/>
<stop offset="0.44" stop-color="#FCD33E"/>
<stop offset="0.56" stop-color="#FFD641"/>
<stop offset="0.64" stop-color="#FBD33E"/>
<stop offset="0.74" stop-color="#EEC834"/>
<stop offset="0.85" stop-color="#D7B623"/>
<stop offset="0.95" stop-color="#B99E0A"/>
<stop offset="1" stop-color="#A89114"/>
</linearGradient>
<linearGradient id="paint12_linear_1221_440" x1="1651.49" y1="273.473" x2="1695.75" y2="305.139" gradientUnits="userSpaceOnUse">
<stop stop-color="#A89114"/>
<stop offset="0.08" stop-color="#BDA10D"/>
<stop offset="0.2" stop-color="#D8B825"/>
<stop offset="0.32" stop-color="#EEC935"/>
<stop offset="0.44" stop-color="#FCD33E"/>
<stop offset="0.56" stop-color="#FFD641"/>
<stop offset="0.64" stop-color="#FBD33E"/>
<stop offset="0.74" stop-color="#EEC834"/>
<stop offset="0.85" stop-color="#D7B623"/>
<stop offset="0.95" stop-color="#B99E0A"/>
<stop offset="1" stop-color="#A89114"/>
</linearGradient>
<linearGradient id="paint13_linear_1221_440" x1="1439.14" y1="423.809" x2="1432.67" y2="444.079" gradientUnits="userSpaceOnUse">
<stop offset="0.16" stop-color="#F6C52F"/>
<stop offset="0.89" stop-color="#D39A01"/>
</linearGradient>
<linearGradient id="paint14_linear_1221_440" x1="1644.93" y1="681.767" x2="1754.17" y2="723.039" gradientUnits="userSpaceOnUse">
<stop offset="0.16" stop-color="#F6C52F"/>
<stop offset="0.89" stop-color="#D39A01"/>
</linearGradient>
<linearGradient id="paint15_linear_1221_440" x1="1692.59" y1="493.14" x2="1706.52" y2="504.161" gradientUnits="userSpaceOnUse">
<stop offset="0.16" stop-color="#F6C52F"/>
<stop offset="0.89" stop-color="#D39A01"/>
</linearGradient>
<linearGradient id="paint16_linear_1221_440" x1="369.559" y1="421.94" x2="371.75" y2="406.253" gradientUnits="userSpaceOnUse">
<stop stop-color="#A89114"/>
<stop offset="0.08" stop-color="#BDA10D"/>
<stop offset="0.2" stop-color="#D8B825"/>
<stop offset="0.32" stop-color="#EEC935"/>
<stop offset="0.44" stop-color="#FCD33E"/>
<stop offset="0.56" stop-color="#FFD641"/>
<stop offset="0.64" stop-color="#FBD33E"/>
<stop offset="0.74" stop-color="#EEC834"/>
<stop offset="0.85" stop-color="#D7B623"/>
<stop offset="0.95" stop-color="#B99E0A"/>
<stop offset="1" stop-color="#A89114"/>
</linearGradient>
<linearGradient id="paint17_linear_1221_440" x1="43.0467" y1="553.401" x2="22.7742" y2="535.966" gradientUnits="userSpaceOnUse">
<stop stop-color="#A88112"/>
<stop offset="0.56" stop-color="#FFD641"/>
<stop offset="0.95" stop-color="#A98212"/>
<stop offset="1" stop-color="#9F7913"/>
</linearGradient>
<linearGradient id="paint18_linear_1221_440" x1="652.517" y1="371.464" x2="662.117" y2="357.202" gradientUnits="userSpaceOnUse">
<stop stop-color="#A88112"/>
<stop offset="0.56" stop-color="#FFD641"/>
<stop offset="0.95" stop-color="#A98212"/>
<stop offset="1" stop-color="#9F7913"/>
</linearGradient>
<linearGradient id="paint19_linear_1221_440" x1="471.247" y1="765.41" x2="475.504" y2="759.082" gradientUnits="userSpaceOnUse">
<stop offset="0.16" stop-color="#F6C52F"/>
<stop offset="0.89" stop-color="#D39A01"/>
</linearGradient>
<linearGradient id="paint20_linear_1221_440" x1="354.732" y1="219.981" x2="371.773" y2="194.661" gradientUnits="userSpaceOnUse">
<stop stop-color="#A89114"/>
<stop offset="0.08" stop-color="#BDA10D"/>
<stop offset="0.2" stop-color="#D8B825"/>
<stop offset="0.32" stop-color="#EEC935"/>
<stop offset="0.44" stop-color="#FCD33E"/>
<stop offset="0.56" stop-color="#FFD641"/>
<stop offset="0.64" stop-color="#FBD33E"/>
<stop offset="0.74" stop-color="#EEC834"/>
<stop offset="0.85" stop-color="#D7B623"/>
<stop offset="0.95" stop-color="#B99E0A"/>
<stop offset="1" stop-color="#A89114"/>
</linearGradient>
<linearGradient id="paint21_linear_1221_440" x1="670.07" y1="498.34" x2="688.137" y2="501.252" gradientUnits="userSpaceOnUse">
<stop stop-color="#A89114"/>
<stop offset="0.08" stop-color="#BDA10D"/>
<stop offset="0.2" stop-color="#D8B825"/>
<stop offset="0.32" stop-color="#EEC935"/>
<stop offset="0.44" stop-color="#FCD33E"/>
<stop offset="0.56" stop-color="#FFD641"/>
<stop offset="0.64" stop-color="#FBD33E"/>
<stop offset="0.74" stop-color="#EEC834"/>
<stop offset="0.85" stop-color="#D7B623"/>
<stop offset="0.95" stop-color="#B99E0A"/>
<stop offset="1" stop-color="#A89114"/>
</linearGradient>
<linearGradient id="paint22_linear_1221_440" x1="332.543" y1="606.255" x2="343.012" y2="590.712" gradientUnits="userSpaceOnUse">
<stop offset="0.16" stop-color="#F6C52F"/>
<stop offset="0.89" stop-color="#D39A01"/>
</linearGradient>
<linearGradient id="paint23_linear_1221_440" x1="488.097" y1="474.676" x2="497.697" y2="460.414" gradientUnits="userSpaceOnUse">
<stop stop-color="#A88112"/>
<stop offset="0.56" stop-color="#FFD641"/>
<stop offset="0.95" stop-color="#A98212"/>
<stop offset="1" stop-color="#9F7913"/>
</linearGradient>
<linearGradient id="paint24_linear_1221_440" x1="218.344" y1="627.437" x2="208.949" y2="625.027" gradientUnits="userSpaceOnUse">
<stop stop-color="#A88112"/>
<stop offset="0.56" stop-color="#FFD641"/>
<stop offset="0.95" stop-color="#A98212"/>
<stop offset="1" stop-color="#9F7913"/>
</linearGradient>
<linearGradient id="paint25_linear_1221_440" x1="534.914" y1="422.785" x2="555.076" y2="403.116" gradientUnits="userSpaceOnUse">
<stop offset="0.16" stop-color="#F6C52F"/>
<stop offset="0.89" stop-color="#D39A01"/>
</linearGradient>
<linearGradient id="paint26_linear_1221_440" x1="521.191" y1="634.99" x2="531.078" y2="620.289" gradientUnits="userSpaceOnUse">
<stop stop-color="#A89114"/>
<stop offset="0.08" stop-color="#BDA10D"/>
<stop offset="0.2" stop-color="#D8B825"/>
<stop offset="0.32" stop-color="#EEC935"/>
<stop offset="0.44" stop-color="#FCD33E"/>
<stop offset="0.56" stop-color="#FFD641"/>
<stop offset="0.64" stop-color="#FBD33E"/>
<stop offset="0.74" stop-color="#EEC834"/>
<stop offset="0.85" stop-color="#D7B623"/>
<stop offset="0.95" stop-color="#B99E0A"/>
<stop offset="1" stop-color="#A89114"/>
</linearGradient>
<linearGradient id="paint27_linear_1221_440" x1="219.327" y1="566.48" x2="227.518" y2="554.312" gradientUnits="userSpaceOnUse">
<stop offset="0.16" stop-color="#F6C52F"/>
<stop offset="0.89" stop-color="#D39A01"/>
</linearGradient>
<linearGradient id="paint28_linear_1221_440" x1="462.313" y1="337.527" x2="474.895" y2="336.789" gradientUnits="userSpaceOnUse">
<stop stop-color="#A89114"/>
<stop offset="0.08" stop-color="#BDA10D"/>
<stop offset="0.2" stop-color="#D8B825"/>
<stop offset="0.32" stop-color="#EEC935"/>
<stop offset="0.44" stop-color="#FCD33E"/>
<stop offset="0.56" stop-color="#FFD641"/>
<stop offset="0.64" stop-color="#FBD33E"/>
<stop offset="0.74" stop-color="#EEC834"/>
<stop offset="0.85" stop-color="#D7B623"/>
<stop offset="0.95" stop-color="#B99E0A"/>
<stop offset="1" stop-color="#A89114"/>
</linearGradient>
<linearGradient id="paint29_linear_1221_440" x1="444.928" y1="470.235" x2="442.362" y2="459.919" gradientUnits="userSpaceOnUse">
<stop stop-color="#A89114"/>
<stop offset="0.08" stop-color="#BDA10D"/>
<stop offset="0.2" stop-color="#D8B825"/>
<stop offset="0.32" stop-color="#EEC935"/>
<stop offset="0.44" stop-color="#FCD33E"/>
<stop offset="0.56" stop-color="#FFD641"/>
<stop offset="0.64" stop-color="#FBD33E"/>
<stop offset="0.74" stop-color="#EEC834"/>
<stop offset="0.85" stop-color="#D7B623"/>
<stop offset="0.95" stop-color="#B99E0A"/>
<stop offset="1" stop-color="#A89114"/>
</linearGradient>
<linearGradient id="paint30_linear_1221_440" x1="500.433" y1="526.172" x2="498.975" y2="520.315" gradientUnits="userSpaceOnUse">
<stop offset="0.16" stop-color="#F6C52F"/>
<stop offset="0.89" stop-color="#D39A01"/>
</linearGradient>
<linearGradient id="paint31_linear_1221_440" x1="776.364" y1="561.302" x2="773.559" y2="550.025" gradientUnits="userSpaceOnUse">
<stop stop-color="#A88112"/>
<stop offset="0.56" stop-color="#FFD641"/>
<stop offset="0.95" stop-color="#A98212"/>
<stop offset="1" stop-color="#9F7913"/>
</linearGradient>
<linearGradient id="paint32_linear_1221_440" x1="431.604" y1="310.198" x2="437.338" y2="298.448" gradientUnits="userSpaceOnUse">
<stop offset="0.16" stop-color="#F6C52F"/>
<stop offset="0.89" stop-color="#D39A01"/>
</linearGradient>
<linearGradient id="paint33_linear_1221_440" x1="276.095" y1="664.34" x2="274.636" y2="658.483" gradientUnits="userSpaceOnUse">
<stop stop-color="#A89114"/>
<stop offset="0.08" stop-color="#BDA10D"/>
<stop offset="0.2" stop-color="#D8B825"/>
<stop offset="0.32" stop-color="#EEC935"/>
<stop offset="0.44" stop-color="#FCD33E"/>
<stop offset="0.56" stop-color="#FFD641"/>
<stop offset="0.64" stop-color="#FBD33E"/>
<stop offset="0.74" stop-color="#EEC834"/>
<stop offset="0.85" stop-color="#D7B623"/>
<stop offset="0.95" stop-color="#B99E0A"/>
<stop offset="1" stop-color="#A89114"/>
</linearGradient>
<linearGradient id="paint34_linear_1221_440" x1="594.361" y1="445.739" x2="590.52" y2="440.974" gradientUnits="userSpaceOnUse">
<stop stop-color="#A89114"/>
<stop offset="0.08" stop-color="#BDA10D"/>
<stop offset="0.2" stop-color="#D8B825"/>
<stop offset="0.32" stop-color="#EEC935"/>
<stop offset="0.44" stop-color="#FCD33E"/>
<stop offset="0.56" stop-color="#FFD641"/>
<stop offset="0.64" stop-color="#FBD33E"/>
<stop offset="0.74" stop-color="#EEC834"/>
<stop offset="0.85" stop-color="#D7B623"/>
<stop offset="0.95" stop-color="#B99E0A"/>
<stop offset="1" stop-color="#A89114"/>
</linearGradient>
<linearGradient id="paint35_linear_1221_440" x1="338.022" y1="739.53" x2="343.263" y2="687.138" gradientUnits="userSpaceOnUse">
<stop stop-color="#A89114"/>
<stop offset="0.08" stop-color="#BDA10D"/>
<stop offset="0.2" stop-color="#D8B825"/>
<stop offset="0.32" stop-color="#EEC935"/>
<stop offset="0.44" stop-color="#FCD33E"/>
<stop offset="0.56" stop-color="#FFD641"/>
<stop offset="0.64" stop-color="#FBD33E"/>
<stop offset="0.74" stop-color="#EEC834"/>
<stop offset="0.85" stop-color="#D7B623"/>
<stop offset="0.95" stop-color="#B99E0A"/>
<stop offset="1" stop-color="#A89114"/>
</linearGradient>
<linearGradient id="paint36_linear_1221_440" x1="1349.02" y1="602.326" x2="1339.62" y2="599.916" gradientUnits="userSpaceOnUse">
<stop stop-color="#A88112"/>
<stop offset="0.56" stop-color="#FFD641"/>
<stop offset="0.95" stop-color="#A98212"/>
<stop offset="1" stop-color="#9F7913"/>
</linearGradient>
<linearGradient id="paint37_linear_1221_440" x1="1350" y1="541.369" x2="1358.19" y2="529.201" gradientUnits="userSpaceOnUse">
<stop offset="0.16" stop-color="#F6C52F"/>
<stop offset="0.89" stop-color="#D39A01"/>
</linearGradient>
<linearGradient id="paint38_linear_1221_440" x1="1406.77" y1="639.229" x2="1405.31" y2="633.372" gradientUnits="userSpaceOnUse">
<stop stop-color="#A89114"/>
<stop offset="0.08" stop-color="#BDA10D"/>
<stop offset="0.2" stop-color="#D8B825"/>
<stop offset="0.32" stop-color="#EEC935"/>
<stop offset="0.44" stop-color="#FCD33E"/>
<stop offset="0.56" stop-color="#FFD641"/>
<stop offset="0.64" stop-color="#FBD33E"/>
<stop offset="0.74" stop-color="#EEC834"/>
<stop offset="0.85" stop-color="#D7B623"/>
<stop offset="0.95" stop-color="#B99E0A"/>
<stop offset="1" stop-color="#A89114"/>
</linearGradient>
<linearGradient id="paint39_linear_1221_440" x1="1722.29" y1="845.991" x2="1771.17" y2="826.418" gradientUnits="userSpaceOnUse">
<stop stop-color="#A89114"/>
<stop offset="0.08" stop-color="#BDA10D"/>
<stop offset="0.2" stop-color="#D8B825"/>
<stop offset="0.32" stop-color="#EEC935"/>
<stop offset="0.44" stop-color="#FCD33E"/>
<stop offset="0.56" stop-color="#FFD641"/>
<stop offset="0.64" stop-color="#FBD33E"/>
<stop offset="0.74" stop-color="#EEC834"/>
<stop offset="0.85" stop-color="#D7B623"/>
<stop offset="0.95" stop-color="#B99E0A"/>
<stop offset="1" stop-color="#A89114"/>
</linearGradient>
<linearGradient id="paint40_linear_1221_440" x1="544.619" y1="766.491" x2="563.783" y2="749.922" gradientUnits="userSpaceOnUse">
<stop offset="0.16" stop-color="#F6C52F"/>
<stop offset="0.89" stop-color="#D39A01"/>
</linearGradient>
<linearGradient id="paint41_linear_1221_440" x1="608.491" y1="674.122" x2="621.492" y2="560.977" gradientUnits="userSpaceOnUse">
<stop offset="0.16" stop-color="#F6C52F"/>
<stop offset="0.89" stop-color="#D39A01"/>
</linearGradient>
<linearGradient id="paint42_linear_1221_440" x1="193.077" y1="481.336" x2="201.42" y2="465.744" gradientUnits="userSpaceOnUse">
<stop offset="0.16" stop-color="#F6C52F"/>
<stop offset="0.89" stop-color="#D39A01"/>
</linearGradient>
<linearGradient id="paint43_linear_1221_440" x1="1565.07" y1="638.188" x2="1567.26" y2="622.5" gradientUnits="userSpaceOnUse">
<stop stop-color="#A89114"/>
<stop offset="0.08" stop-color="#BDA10D"/>
<stop offset="0.2" stop-color="#D8B825"/>
<stop offset="0.32" stop-color="#EEC935"/>
<stop offset="0.44" stop-color="#FCD33E"/>
<stop offset="0.56" stop-color="#FFD641"/>
<stop offset="0.64" stop-color="#FBD33E"/>
<stop offset="0.74" stop-color="#EEC834"/>
<stop offset="0.85" stop-color="#D7B623"/>
<stop offset="0.95" stop-color="#B99E0A"/>
<stop offset="1" stop-color="#A89114"/>
</linearGradient>
<linearGradient id="paint44_linear_1221_440" x1="1854.52" y1="724.464" x2="1864.12" y2="710.202" gradientUnits="userSpaceOnUse">
<stop stop-color="#A88112"/>
<stop offset="0.56" stop-color="#FFD641"/>
<stop offset="0.95" stop-color="#A98212"/>
<stop offset="1" stop-color="#9F7913"/>
</linearGradient>
<linearGradient id="paint45_linear_1221_440" x1="1550.24" y1="436.229" x2="1567.29" y2="410.909" gradientUnits="userSpaceOnUse">
<stop stop-color="#A89114"/>
<stop offset="0.08" stop-color="#BDA10D"/>
<stop offset="0.2" stop-color="#D8B825"/>
<stop offset="0.32" stop-color="#EEC935"/>
<stop offset="0.44" stop-color="#FCD33E"/>
<stop offset="0.56" stop-color="#FFD641"/>
<stop offset="0.64" stop-color="#FBD33E"/>
<stop offset="0.74" stop-color="#EEC834"/>
<stop offset="0.85" stop-color="#D7B623"/>
<stop offset="0.95" stop-color="#B99E0A"/>
<stop offset="1" stop-color="#A89114"/>
</linearGradient>
<linearGradient id="paint46_linear_1221_440" x1="1683.61" y1="690.924" x2="1693.21" y2="676.661" gradientUnits="userSpaceOnUse">
<stop stop-color="#A88112"/>
<stop offset="0.56" stop-color="#FFD641"/>
<stop offset="0.95" stop-color="#A98212"/>
<stop offset="1" stop-color="#9F7913"/>
</linearGradient>
<linearGradient id="paint47_linear_1221_440" x1="1592.86" y1="583.655" x2="1605.44" y2="582.917" gradientUnits="userSpaceOnUse">
<stop stop-color="#A89114"/>
<stop offset="0.08" stop-color="#BDA10D"/>
<stop offset="0.2" stop-color="#D8B825"/>
<stop offset="0.32" stop-color="#EEC935"/>
<stop offset="0.44" stop-color="#FCD33E"/>
<stop offset="0.56" stop-color="#FFD641"/>
<stop offset="0.64" stop-color="#FBD33E"/>
<stop offset="0.74" stop-color="#EEC834"/>
<stop offset="0.85" stop-color="#D7B623"/>
<stop offset="0.95" stop-color="#B99E0A"/>
<stop offset="1" stop-color="#A89114"/>
</linearGradient>
<linearGradient id="paint48_linear_1221_440" x1="1640.44" y1="686.483" x2="1637.87" y2="676.166" gradientUnits="userSpaceOnUse">
<stop stop-color="#A89114"/>
<stop offset="0.08" stop-color="#BDA10D"/>
<stop offset="0.2" stop-color="#D8B825"/>
<stop offset="0.32" stop-color="#EEC935"/>
<stop offset="0.44" stop-color="#FCD33E"/>
<stop offset="0.56" stop-color="#FFD641"/>
<stop offset="0.64" stop-color="#FBD33E"/>
<stop offset="0.74" stop-color="#EEC834"/>
<stop offset="0.85" stop-color="#D7B623"/>
<stop offset="0.95" stop-color="#B99E0A"/>
<stop offset="1" stop-color="#A89114"/>
</linearGradient>
<linearGradient id="paint49_linear_1221_440" x1="1576.16" y1="536.333" x2="1573.36" y2="525.056" gradientUnits="userSpaceOnUse">
<stop stop-color="#A88112"/>
<stop offset="0.56" stop-color="#FFD641"/>
<stop offset="0.95" stop-color="#A98212"/>
<stop offset="1" stop-color="#9F7913"/>
</linearGradient>
<linearGradient id="paint50_linear_1221_440" x1="1260.05" y1="599.612" x2="1265.78" y2="587.862" gradientUnits="userSpaceOnUse">
<stop offset="0.16" stop-color="#F6C52F"/>
<stop offset="0.89" stop-color="#D39A01"/>
</linearGradient>
<clipPath id="clip0_1221_440">
<rect width="1920" height="1024" fill="white"/>
</clipPath>
</defs>
</svg>
